<?xml version="1.0" encoding="utf-8"?>
<svg version="1.1" xmlns:xlink="http://www.w3.org/1999/xlink" width="203px" height="136px" xmlns="http://www.w3.org/2000/svg">
  <g transform="matrix(1 0 0 1 -452 -237 )">
    <path d="M 75 0  L 202 0  L 202 45  L 183 45  L 183 70  L 203 70  L 202.712460063898 95  L 148.399361022364 95  L 138 95.2939297124601  L 138 70  L 148 70  L 148 53  L 159 53  L 159 42.8977635782747  L 158.94249201278 34  L 138 34  L 138 44.4952076677317  L 138.814696485623 95  L 119 95  L 119 126  L 77.7923322683706 126  L 59.9009584664537 135  L 28 135  L 28 95  L 1 95  L 1 68  L 48 68  L 48 84  L 60 84  L 60 68  L 75 68  L 75 53  L 115 53  L 115 42  L 75 42  L 75 0  Z " fill-rule="nonzero" fill="#00c4b6" stroke="none" transform="matrix(1 0 0 1 452 237 )" />
  </g>
</svg>