<?xml version="1.0" encoding="utf-8"?>
<svg version="1.1" xmlns:xlink="http://www.w3.org/1999/xlink" width="204px" height="171px" xmlns="http://www.w3.org/2000/svg">
  <g transform="matrix(1 0 0 1 -450 -236 )">
    <path d="M 0 94  L 0.773455377574237 73  L 51 73  L 51 85.1784897025171  L 60 85.1784897025171  L 60 66.4141876430206  L 77.8901601830664 63  L 115 63  L 115 53  L 74.4576659038902 53  L 76.0594965675057 0  L 173.771167048055 0  L 204 0.0526315789473415  L 204 44  L 158.897025171625 44  L 158.897025171625 52.2265446224256  L 150 52.2265446224256  L 150 71  L 204 71  L 204 96  L 150.430205949657 96  L 110.155606407323 96.3913043478261  L 110.155606407323 104  L 121 104  L 121 126  L 77.8901601830664 126  L 60 134.403802625622  L 60 170  L 28.2334096109839 170  L 11 170  L 11 134.403802625622  L 31 132.546910755149  L 31 94  L 0 94  Z " fill-rule="nonzero" fill="#00c4b6" stroke="none" transform="matrix(1 0 0 1 450 236 )" />
  </g>
</svg>