<?xml version="1.0" encoding="utf-8"?>
<svg version="1.1" xmlns:xlink="http://www.w3.org/1999/xlink" width="197px" height="167px" xmlns="http://www.w3.org/2000/svg">
  <g transform="matrix(1 0 0 1 -579 -295 )">
    <path d="M 1 138.630952380952  L 1 66.2345276872965  L 45.404761904762 64.2261904761905  L 51.654761904762 95.4761904761905  L 58 95.4761904761905  L 58.1538461538462 1  L 94 1  L 94 40  L 160 40  L 160 65  L 171.297619047619 65  L 185 64.2261904761905  L 185 115.714285714286  L 194.511904761905 115.714285714286  L 196.297619047619 152  L 171 152  L 171 166  L 121.892857142857 166  L 96.2976190476192 139  L 87.3690476190476 146.964285714286  L 79.3333333333334 139  L 55.2261904761905 139  L 1 138.630952380952  Z " fill-rule="nonzero" fill="#00c4b6" stroke="none" transform="matrix(1 0 0 1 579 295 )" />
  </g>
</svg>