<?xml version="1.0" encoding="utf-8"?>
<svg version="1.1" xmlns:xlink="http://www.w3.org/1999/xlink" width="170px" height="137px" xmlns="http://www.w3.org/2000/svg">
  <g transform="matrix(1 0 0 1 -606 -359 )">
    <path d="M 78 136  L 78 101.15037593985  L 68.812030075188 92.5037593984962  L 77.8345864661654 84.2330827067669  L 68.812030075188 74.8345864661655  L 59.7894736842105 84.2330827067669  L 53.0225563909776 74  L 30.4661654135339 74  L 30.4661654135339 67.6917293233083  L 25.5789473684212 67.6917293233083  L 25.5789473684212 74  L 1 74  L 1 31  L 28.2105263157896 31  L 30.4661654135339 1  L 169.187969924812 1  L 159 0.774436090225549  L 159 51  L 169 51  L 169 101  L 117 101  L 117 136  L 78 136  Z " fill-rule="nonzero" fill="#00c4b6" stroke="none" transform="matrix(1 0 0 1 606 359 )" />
  </g>
</svg>