<?xml version="1.0" encoding="utf-8"?>
<svg version="1.1" xmlns:xlink="http://www.w3.org/1999/xlink" width="170px" height="203px" xmlns="http://www.w3.org/2000/svg">
  <g transform="matrix(1 0 0 1 -606 -270 )">
    <path d="M 78 202  L 78 190.15037593985  L 68.812030075188 181.503759398496  L 77.8345864661654 173.233082706767  L 68.812030075188 163.834586466165  L 59.7894736842105 173.233082706767  L 53.0225563909776 163  L 30.4661654135339 163  L 30.4661654135339 156.691729323308  L 25.5789473684212 156.691729323308  L 25.5789473684212 163  L 1 163  L 1 119  L 28.2105263157896 119  L 31 89.7744360902255  L 31 26  L 88 26  L 88 1  L 169 1  L 169 89.7744360902255  L 159 89.7744360902255  L 159 139  L 169 139  L 169 190  L 117 190  L 117 202  L 78 202  Z " fill-rule="nonzero" fill="#00c4b6" stroke="none" transform="matrix(1 0 0 1 606 270 )" />
  </g>
</svg>